<?xml version="1.0" standalone="no"?>
<!DOCTYPE svg PUBLIC "-//W3C//DTD SVG 1.1//EN" "http://www.w3.org/Graphics/SVG/1.1/DTD/svg11.dtd" >
<svg xmlns="http://www.w3.org/2000/svg">
<metadata></metadata>
<defs>
<font id="core_sans_g_95_blackregular" horiz-adv-x="1312" >
<font-face units-per-em="2048" ascent="1638" descent="-410" />
<missing-glyph horiz-adv-x="614" />
<glyph unicode="&#xfb01;" horiz-adv-x="1505" d="M61 639v319h142v66q0 250 152.5 392.5t424.5 142.5q161 0 304 -71t237 -202l-293 -162q-83 115 -207 115q-95 0 -152 -59.5t-57 -153.5v-68h789v-958h-410v639h-379v-639h-409v639h-142z" />
<glyph unicode="&#xfb02;" horiz-adv-x="1523" d="M61 639v319h142v97q0 235 134 369.5t353 134.5q90 0 177 -28.5t143 -72.5v78h409v-1536h-409v1169q-32 31 -82 50.5t-105 19.5q-101 0 -156 -57t-55 -154v-70h232v-319h-232v-639h-409v639h-142z" />
<glyph unicode="&#xfb03;" horiz-adv-x="2304" d="M61 639v319h142v138q0 203 115.5 317.5t330.5 114.5q98 0 196 -27t175 -76l-137 -264q-63 47 -140 47q-59 0 -95 -31.5t-36 -84.5v-134h389v66q0 250 152.5 392.5t425.5 142.5q161 0 304 -71t237 -202l-293 -162q-83 115 -207 115q-95 0 -152 -59.5t-57 -153.5v-68h789 v-958h-410v639h-379v-639h-410v639h-389v-639h-409v639h-142z" />
<glyph unicode="&#xfb04;" horiz-adv-x="2322" d="M61 639v319h142v138q0 204 111.5 318t324.5 114q204 0 369 -103l-138 -264q-25 21 -62.5 34t-72.5 13q-60 0 -91.5 -33.5t-31.5 -91.5v-125h389v97q0 235 134.5 369.5t353.5 134.5q90 0 176.5 -28.5t142.5 -72.5v78h410v-1536h-410v1169q-74 70 -186 70q-101 0 -156 -57 t-55 -154v-70h231v-319h-231v-639h-410v639h-389v-639h-409v639h-142z" />
<glyph horiz-adv-x="0" />
<glyph horiz-adv-x="0" />
<glyph horiz-adv-x="682" />
<glyph horiz-adv-x="0" />
<glyph unicode="&#x9;" horiz-adv-x="485" />
<glyph unicode="&#xd;" horiz-adv-x="485" />
<glyph horiz-adv-x="0" />
<glyph unicode=" "  horiz-adv-x="614" />
<glyph unicode="&#x09;" horiz-adv-x="614" />
<glyph unicode="&#xa0;" horiz-adv-x="614" />
<glyph unicode="!" horiz-adv-x="770" d="M139 188q0 94 71.5 154.5t174.5 60.5t174.5 -60.5t71.5 -154.5t-71.5 -153.5t-174.5 -59.5t-174.5 59.5t-71.5 153.5zM147 492v942h476v-942h-476z" />
<glyph unicode="&#x22;" horiz-adv-x="1290" d="M174 1434h406l-48 -670h-311zM711 1434h405l-47 -670h-311z" />
<glyph unicode="#" horiz-adv-x="1411" d="M88 281v333h180v211h-180v334h180v275h353v-275h170v275h352v-275h180v-334h-180v-211h180v-333h-180v-281h-352v281h-170v-281h-353v281h-180zM621 614h170v211h-170v-211z" />
<glyph unicode="$" horiz-adv-x="1189" d="M53 172l209 332q67 -64 142.5 -99.5t146.5 -35.5q49 0 80 22.5t31 61.5t-26 65.5t-104 54.5q-199 73 -304 185t-105 280q0 144 82 250.5t227 147.5v198h330v-192q173 -38 309 -129l-188 -299q-94 78 -195 78q-100 0 -100 -62q0 -37 39 -63t161 -74q349 -137 349 -457 q0 -163 -89.5 -278.5t-252.5 -157.5v-201h-330v187q-254 40 -412 186z" />
<glyph unicode="%" horiz-adv-x="1949" d="M104 1102q0 150 107.5 253t257.5 103t257.5 -103t107.5 -253q0 -149 -107.5 -251.5t-257.5 -102.5t-257.5 102.5t-107.5 251.5zM387 1102q0 -33 23.5 -56.5t58.5 -23.5q34 0 58 24t24 56q0 34 -24 58t-58 24q-35 0 -58.5 -24t-23.5 -58zM399 106l963 1352l188 -131 l-962 -1352zM1116 332q0 149 107.5 251.5t257.5 102.5q149 0 256.5 -102.5t107.5 -251.5q0 -151 -107.5 -254t-256.5 -103q-150 0 -257.5 103.5t-107.5 253.5zM1399 332q0 -34 24 -58t58 -24q35 0 58.5 24t23.5 58q0 33 -23.5 56.5t-58.5 23.5q-34 0 -58 -24t-24 -56z" />
<glyph unicode="&#x26;" horiz-adv-x="1443" d="M70 401q0 245 231 416l-12 17q-109 144 -109 274q0 157 123 253.5t305 96.5q116 0 214 -42.5t158 -123t60 -182.5q0 -191 -192 -336l-35 -26l160 -207q80 84 157 186l279 -287q-90 -108 -199 -207l197 -253l-440 -50l-86 111q-121 -66 -285 -66q-240 0 -383 118t-143 308 zM465 418q0 -46 35.5 -77.5t89.5 -31.5q44 0 82 19l-158 204q-49 -42 -49 -114zM532 1108q0 -25 19 -60t51 -65q41 26 63.5 61.5t22.5 65.5q0 33 -20 55.5t-58 22.5q-36 0 -57 -22t-21 -58z" />
<glyph unicode="'" horiz-adv-x="753" d="M174 1434h406l-48 -670h-311z" />
<glyph unicode="(" horiz-adv-x="892" d="M158 635q0 227 66 459t200 442l381 -39q-234 -399 -234 -862t234 -862l-381 -39q-134 210 -200 442t-66 459z" />
<glyph unicode=")" horiz-adv-x="892" d="M88 -227q234 399 234 862t-234 862l381 39q134 -210 200 -442t66 -459t-66 -459t-200 -442z" />
<glyph unicode="*" horiz-adv-x="1310" d="M88 649l113 350l110 -34l217 -131l-57 245v117h369v-117l-58 -245l217 131l111 34l113 -350l-111 -35l-250 -22l187 -162l67 -94l-297 -215l-67 94l-97 223l-96 -223l-67 -94l-297 215l67 94l187 162l-250 22z" />
<glyph unicode="+" horiz-adv-x="1306" d="M123 510v340h326v377h409v-377h326v-340h-326v-377h-409v377h-326z" />
<glyph unicode="," horiz-adv-x="663" d="M14 -287l164 727l432 -45l-260 -717z" />
<glyph unicode="-" horiz-adv-x="831" d="M102 510v340h627v-340h-627z" />
<glyph unicode="." horiz-adv-x="663" d="M86 219q0 101 72.5 173.5t173.5 72.5t173.5 -72.5t72.5 -173.5t-72.5 -172.5t-173.5 -71.5t-173.5 71.5t-72.5 172.5z" />
<glyph unicode="/" horiz-adv-x="1263" d="M0 -182l848 1714l416 -43l-848 -1714z" />
<glyph unicode="0" horiz-adv-x="1327" d="M127 717q0 344 142.5 542.5t394.5 198.5t394 -198t142 -543t-142 -543.5t-394 -198.5t-394.5 198.5t-142.5 543.5zM561 717q0 -130 14 -207t35.5 -103t53.5 -26t53 26t35 103t14 207t-14 207t-35 103t-53 26t-53.5 -26t-35.5 -103t-14 -207z" />
<glyph unicode="1" horiz-adv-x="1327" d="M176 1104l623 344l227 -64v-1384h-475v870l-182 -100z" />
<glyph unicode="2" horiz-adv-x="1327" d="M137 219l477 592q44 55 61 92t17 74q0 34 -23.5 56t-56.5 22q-37 0 -64 -22.5t-50 -74.5l-351 144q78 174 210.5 265t306.5 91q216 0 354.5 -132t138.5 -343q0 -180 -129 -344l-186 -233h344v-406h-959z" />
<glyph unicode="3" horiz-adv-x="1327" d="M117 250l315 221q56 -106 148 -106q60 0 94.5 37t34.5 100q0 54 -35.5 90.5t-85.5 36.5q-38 0 -82 -15l-113 209l193 246h-373v365h834l112 -209l-262 -355q283 -128 283 -421q0 -95 -37.5 -180.5t-105.5 -151t-171.5 -104t-226.5 -38.5q-167 0 -305 72t-217 203z" />
<glyph unicode="4" horiz-adv-x="1327" d="M57 426l676 1022l363 -21v-817h133v-385h-133v-225h-434v225h-523zM496 608h166v252z" />
<glyph unicode="5" horiz-adv-x="1327" d="M121 244l317 219q23 -44 61.5 -71t78.5 -27q60 0 96.5 35.5t36.5 93.5q0 61 -38 96t-98 35q-65 0 -122 -50l-226 115l109 744h786v-385h-362l-21 -117q200 -24 320.5 -149t120.5 -318q0 -102 -36.5 -190.5t-104.5 -155.5t-172.5 -105.5t-233.5 -38.5q-158 0 -294 69.5 t-218 199.5z" />
<glyph unicode="6" horiz-adv-x="1327" d="M111 492q0 189 116 360l412 606l481 -69l-295 -457q171 -40 281.5 -163t110.5 -277q0 -149 -73 -268t-196 -184t-270 -65q-114 0 -217.5 38.5t-180.5 105.5t-123 164t-46 209zM539 492q0 -55 36 -91t89 -36t88.5 36t35.5 91t-35.5 90.5t-88.5 35.5t-89 -35.5t-36 -90.5z " />
<glyph unicode="7" horiz-adv-x="1327" d="M186 1028v406h934l113 -209l-492 -1250l-481 70l393 983h-467z" />
<glyph unicode="8" horiz-adv-x="1327" d="M96 451q0 112 51.5 202t145.5 146q-49 46 -80 112t-31 140q0 170 132.5 288.5t349.5 118.5t349 -118.5t132 -288.5q0 -74 -31 -140t-80 -112q94 -56 145.5 -146t51.5 -202q0 -133 -74 -242t-204 -171.5t-289 -62.5q-242 0 -405 137t-163 339zM539 492q0 -55 36 -91 t89 -36t88.5 36t35.5 91t-35.5 90.5t-88.5 35.5t-89 -35.5t-36 -90.5zM557 1010q0 -47 31 -78t76 -31t75.5 31t30.5 78t-30.5 77.5t-75.5 30.5t-76 -30.5t-31 -77.5z" />
<glyph unicode="9" horiz-adv-x="1327" d="M111 942q0 149 73 268t195.5 183.5t269.5 64.5q152 0 281.5 -64.5t208 -184t78.5 -267.5q0 -188 -117 -360l-412 -607l-481 70l295 457q-171 40 -281 163t-110 277zM539 942q0 -55 36 -91t89 -36t88.5 36t35.5 91t-35.5 91t-88.5 36t-89 -36t-36 -91z" />
<glyph unicode=":" horiz-adv-x="663" d="M86 219q0 101 72.5 173.5t173.5 72.5t173.5 -72.5t72.5 -173.5t-72.5 -172.5t-173.5 -71.5t-173.5 71.5t-72.5 172.5zM86 844q0 101 72.5 173.5t173.5 72.5t173.5 -72.5t72.5 -173.5t-72.5 -172.5t-173.5 -71.5t-173.5 71.5t-72.5 172.5z" />
<glyph unicode=";" horiz-adv-x="663" d="M-23 -287l164 727l432 -45l-260 -717zM86 844q0 101 72.5 173.5t173.5 72.5t173.5 -72.5t72.5 -173.5t-72.5 -172.5t-173.5 -71.5t-173.5 71.5t-72.5 172.5z" />
<glyph unicode="&#x3c;" horiz-adv-x="1306" d="M123 584v192l1003 520l58 -417l-449 -199l449 -199l-58 -418z" />
<glyph unicode="=" horiz-adv-x="1306" d="M123 244v340h1061v-340h-1061zM123 776v340h1061v-340h-1061z" />
<glyph unicode="&#x3e;" horiz-adv-x="1306" d="M123 481l448 199l-448 199l57 417l1004 -520v-192l-1004 -521z" />
<glyph unicode="?" horiz-adv-x="1173" d="M61 1102q49 164 185 260t344 96q238 0 376 -105.5t138 -260.5q0 -250 -262 -363q-113 -48 -146.5 -70.5t-33.5 -46.5q0 -32 65 -32q46 0 82 12l20 -103q-90 -38 -219 -38q-128 0 -203 60t-75 153q0 147 180 251q58 34 85.5 71.5t27.5 90.5q0 41 -25.5 67.5t-71.5 26.5 t-83 -37t-52 -104zM362 188q0 94 71.5 154.5t174.5 60.5t174.5 -60.5t71.5 -154.5t-71.5 -153.5t-174.5 -59.5t-174.5 59.5t-71.5 153.5z" />
<glyph unicode="@" horiz-adv-x="1900" d="M70 561q0 116 31 229.5t86.5 212t136 183t175.5 144.5t209.5 94t233.5 34q186 0 353 -70.5t283.5 -188t184.5 -272.5t68 -321q0 -212 -112 -339.5t-318 -127.5q-236 0 -336 129q-42 -62 -108 -95.5t-140 -33.5q-162 0 -264 119.5t-102 300.5t102 300.5t264 119.5 q70 0 136.5 -30.5t111.5 -78.5v88h342v-518q0 -76 29.5 -114.5t83.5 -38.5q72 0 122 86.5t50 232.5q0 147 -56.5 281t-155 232.5t-239 157t-299.5 58.5q-200 0 -368.5 -104t-266.5 -282t-98 -388q0 -206 99 -382.5t274.5 -282t386.5 -105.5q128 0 258 37.5t231 103.5 l53 -110q-120 -73 -260.5 -113.5t-281.5 -40.5q-186 0 -354.5 74.5t-287 197.5t-188 286t-69.5 335zM793 559q0 -51 33.5 -85t84.5 -34q50 0 84.5 34t34.5 85q0 49 -35 84t-84 35q-51 0 -84.5 -34.5t-33.5 -84.5z" />
<glyph unicode="A" horiz-adv-x="1490" d="M27 23l579 1411h279l579 -1411l-450 -48l-76 213h-387l-74 -213zM637 471h217l-109 334z" />
<glyph unicode="B" horiz-adv-x="1267" d="M123 0v1434h495q246 0 376 -105t130 -278q0 -193 -145 -289q231 -108 231 -342q0 -194 -149 -307t-457 -113h-481zM563 307h55q78 0 123 39.5t45 110.5t-45 110t-123 39h-55v-299zM563 893h60q55 0 86.5 33t31.5 84t-31.5 83.5t-86.5 32.5h-60v-233z" />
<glyph unicode="C" horiz-adv-x="1538" d="M70 717q0 130 40.5 247t113 206t168 154.5t209 99.5t233.5 34q202 0 370.5 -80.5t280.5 -216.5l-361 -248q-46 69 -118.5 104.5t-159.5 35.5q-129 0 -225.5 -95t-96.5 -241t96.5 -241t225.5 -95q87 0 159.5 35t118.5 104l361 -248q-112 -136 -280.5 -216.5t-370.5 -80.5 q-150 0 -288.5 54.5t-244 149.5t-168.5 235.5t-63 302.5z" />
<glyph unicode="D" horiz-adv-x="1427" d="M123 0v1434h471q161 0 301.5 -51.5t242.5 -143.5t161 -227t59 -295t-59 -295t-161 -227t-242.5 -143.5t-301.5 -51.5h-471zM588 406h20q135 0 210 80t75 231t-75 231t-210 80h-20v-622z" />
<glyph unicode="E" horiz-adv-x="1107" d="M123 0v1434h881v-344h-406v-187h365v-344h-365v-215h422v-344h-897z" />
<glyph unicode="F" horiz-adv-x="1073" d="M123 0v1434h870v-344h-395v-197h354v-344h-354v-549h-475z" />
<glyph unicode="G" horiz-adv-x="1628" d="M70 717q0 160 64.5 300t172 235.5t247.5 150.5t290 55q202 0 367 -80.5t274 -216.5l-355 -254q-103 146 -284 146q-130 0 -228 -98t-98 -238q0 -73 28 -137.5t73 -107.5t102 -68t115 -25q94 0 167 38t109 111h-250v281h695v-156q0 -301 -199.5 -489.5t-521.5 -188.5 q-148 0 -287.5 55t-245.5 151t-170.5 236t-64.5 300z" />
<glyph unicode="H" horiz-adv-x="1456" d="M123 0v1434h475v-486h260v486h475v-1434h-475v543h-260v-543h-475z" />
<glyph unicode="I" horiz-adv-x="753" d="M139 0v1434h475v-1434h-475z" />
<glyph unicode="J" horiz-adv-x="1216" d="M0 274l348 209q51 -102 146 -102q55 0 89.5 36t34.5 97v920h476v-934q0 -240 -150 -382.5t-403 -142.5q-175 0 -314 77t-227 222z" />
<glyph unicode="K" horiz-adv-x="1474" d="M123 0v1434h475v-580l305 604l498 -55l-369 -668l432 -700l-514 -60l-352 646v-621h-475z" />
<glyph unicode="L" horiz-adv-x="1079" d="M123 0v1434h475v-1028h436v-406h-911z" />
<glyph unicode="M" horiz-adv-x="2097" d="M35 27l428 1407h289l297 -756l297 756h288l428 -1407l-467 -52l-163 689l-244 -664h-279l-243 664l-164 -689z" />
<glyph unicode="N" horiz-adv-x="1511" d="M123 0v1411l254 47l547 -639v615h465v-1411l-254 -48l-547 639v-614h-465z" />
<glyph unicode="O" horiz-adv-x="1699" d="M70 717q0 160 63.5 299.5t170 235.5t248.5 151t298 55t298 -55t248.5 -151t170 -235.5t63.5 -299.5t-63.5 -299.5t-170 -235.5t-248.5 -151.5t-298 -55.5t-298 55.5t-248.5 151.5t-170 235.5t-63.5 299.5zM524 717q0 -144 95 -240t235 -96t235 96t95 240t-95 240t-235 96 t-235 -96t-95 -240z" />
<glyph unicode="P" horiz-adv-x="1253" d="M123 0v1434h475q144 0 260 -39t190 -107.5t113 -160t39 -197.5q0 -107 -39.5 -197.5t-115 -159.5t-195.5 -108t-272 -39v-426h-455zM578 770h67q63 0 102 40.5t39 119.5t-39 119.5t-102 40.5h-67v-320z" />
<glyph unicode="Q" horiz-adv-x="1708" d="M70 717q0 160 63.5 299.5t170 235.5t248.5 151t298 55t298 -55t248.5 -151t170 -235.5t63.5 -299.5q0 -253 -151 -447l200 -184l-295 -270l-233 215q-142 -56 -301 -56q-156 0 -298 55.5t-248.5 151.5t-170 235.5t-63.5 299.5zM524 717q0 -144 95 -240t235 -96t235 96 t95 240t-95 240t-235 96t-235 -96t-95 -240z" />
<glyph unicode="R" horiz-adv-x="1355" d="M123 0v1434h524q126 0 232.5 -39.5t176.5 -105t109 -150.5t39 -178q0 -269 -235 -400l387 -536l-494 -50l-284 449v-424h-455zM578 770h47q63 0 102 40.5t39 119.5t-39 119.5t-102 40.5h-47v-320z" />
<glyph unicode="S" horiz-adv-x="1198" d="M53 172l209 332q67 -64 142.5 -99.5t146.5 -35.5q49 0 80 22.5t31 61.5t-26 65.5t-104 54.5q-199 73 -304 185t-105 280q0 182 131.5 301t349.5 119q250 0 467 -145l-188 -299q-94 78 -195 78q-100 0 -100 -62q0 -37 39 -63t161 -74q349 -137 349 -457 q0 -206 -143 -333.5t-392 -127.5q-155 0 -301 52t-248 145z" />
<glyph unicode="T" horiz-adv-x="1175" d="M61 1028v406h1053v-406h-289v-1028h-475v1028h-289z" />
<glyph unicode="U" horiz-adv-x="1437" d="M123 559v875h475v-912q0 -67 31.5 -104t89.5 -37t89.5 37t31.5 104v912h475v-875q0 -134 -49.5 -246t-132.5 -185t-190 -113t-224 -40t-224 40t-190 113t-132.5 185t-49.5 246z" />
<glyph unicode="V" horiz-adv-x="1507" d="M35 1411l450 47l269 -784l268 784l451 -47l-580 -1411h-279z" />
<glyph unicode="W" horiz-adv-x="2138" d="M35 1407l457 51l210 -739l228 715h278l228 -715l211 739l456 -51l-528 -1407h-279l-227 705l-227 -705h-279z" />
<glyph unicode="X" horiz-adv-x="1497" d="M27 33l428 715l-387 655l512 55l168 -348l170 348l512 -55l-388 -655l428 -715l-520 -58l-202 404l-201 -404z" />
<glyph unicode="Y" horiz-adv-x="1511" d="M35 1405l485 53l236 -508l235 508l486 -53l-484 -870v-535h-475v535z" />
<glyph unicode="Z" horiz-adv-x="1277" d="M88 219l447 830h-385v385h937l91 -220l-469 -829h473v-385h-1004z" />
<glyph unicode="[" horiz-adv-x="925" d="M225 -266v1802h639v-340h-229v-1122h229v-340h-639z" />
<glyph unicode="\" horiz-adv-x="1263" d="M0 1489l416 43l848 -1714l-416 -43z" />
<glyph unicode="]" horiz-adv-x="925" d="M61 74h230v1122h-230v340h639v-1802h-639v340z" />
<glyph unicode="^" horiz-adv-x="1355" d="M139 831l447 603h184l447 -603l-330 -169l-209 288l-209 -288z" />
<glyph unicode="_" horiz-adv-x="1024" d="M0 -158h1024v-241h-1024v241z" />
<glyph unicode="`" horiz-adv-x="880" d="M188 1356l158 198l346 -262l-151 -190z" />
<glyph unicode="a" d="M61 479q0 216 123.5 360t317.5 144q84 0 164.5 -36.5t132.5 -94.5v106h409v-958h-409v106q-52 -58 -132.5 -94.5t-164.5 -36.5q-194 0 -317.5 144t-123.5 360zM471 479q0 -60 41.5 -101.5t101.5 -41.5t102 41.5t42 101.5t-42 102t-102 42t-101.5 -42t-41.5 -102z" />
<glyph unicode="b" d="M104 0v1536h410v-684q52 58 132.5 94.5t164.5 36.5q194 0 317 -144t123 -360t-123 -360t-317 -144q-84 0 -164.5 36.5t-132.5 94.5v-106h-410zM555 479q0 -60 41.5 -101.5t101.5 -41.5t102 41.5t42 101.5t-42 102t-102 42t-101.5 -42t-41.5 -102z" />
<glyph unicode="c" horiz-adv-x="1073" d="M53 479q0 138 71.5 254t192 183t261.5 67q134 0 256 -58t206 -163l-299 -223q-50 84 -139 84q-60 0 -101.5 -42t-41.5 -102t41.5 -101.5t101.5 -41.5q89 0 139 84l299 -223q-84 -105 -206 -163.5t-256 -58.5q-141 0 -261.5 67t-192 183t-71.5 254z" />
<glyph unicode="d" d="M61 479q0 216 123.5 360t317.5 144q84 0 164.5 -36.5t132.5 -94.5v684h409v-1536h-409v106q-52 -58 -132.5 -94.5t-164.5 -36.5q-194 0 -317.5 144t-123.5 360zM471 479q0 -60 41.5 -101.5t101.5 -41.5t102 41.5t42 101.5t-42 102t-102 42t-101.5 -42t-41.5 -102z" />
<glyph unicode="e" horiz-adv-x="1181" d="M53 479q0 138 72 254t198 183t277 67q141 0 263 -66.5t194.5 -183t72.5 -254.5q0 -53 -2 -82h-663q6 -66 52.5 -100.5t107.5 -34.5q108 0 161 98l297 -157q-176 -228 -483 -228q-151 0 -277 67t-198 183t-72 254zM467 623h287q-14 48 -51.5 75t-92.5 27t-92 -27t-51 -75z " />
<glyph unicode="f" horiz-adv-x="911" d="M61 639v319h142v168q0 201 109 317t298 116q230 0 389 -162l-211 -205q-38 47 -92 47q-39 0 -61.5 -28t-22.5 -81v-172h232v-319h-232v-639h-409v639h-142z" />
<glyph unicode="g" d="M61 479q0 216 123.5 360t317.5 144q84 0 164.5 -36.5t132.5 -94.5v106h409v-921q0 -300 -152.5 -457.5t-437.5 -157.5q-149 0 -276.5 53.5t-208.5 153.5l268 248q37 -41 90.5 -67.5t108.5 -26.5q92 0 145.5 57.5t53.5 167.5v98q-52 -58 -132.5 -94.5t-164.5 -36.5 q-194 0 -317.5 144t-123.5 360zM471 479q0 -60 41.5 -101.5t101.5 -41.5t102 41.5t42 101.5t-42 102t-102 42t-101.5 -42t-41.5 -102z" />
<glyph unicode="h" horiz-adv-x="1202" d="M104 0v1536h410v-684q46 58 120 94.5t163 36.5q133 0 218 -93t85 -253v-637h-410v539q0 42 -24.5 68t-63.5 26t-63.5 -26t-24.5 -68v-539h-410z" />
<glyph unicode="i" horiz-adv-x="638" d="M104 1321q0 89 63 152t152 63t152.5 -63t63.5 -152t-63.5 -152t-152.5 -63t-152 63t-63 152zM115 0v958h409v-958h-409z" />
<glyph unicode="j" horiz-adv-x="735" d="M-279 -389l269 248q24 -30 57 -49t64 -19q50 0 79 32t29 87v1048h410v-1062q0 -226 -124.5 -350t-350.5 -124q-130 0 -242 49.5t-191 139.5zM209 1321q0 89 63 152t152 63t152 -63t63 -152t-63 -152t-152 -63t-152 63t-63 152z" />
<glyph unicode="k" horiz-adv-x="1269" d="M104 0v1536h410v-889l254 336l455 -33l-365 -450l393 -490l-467 -35l-270 394v-369h-410z" />
<glyph unicode="l" horiz-adv-x="638" d="M115 0v1536h409v-1536h-409z" />
<glyph unicode="m" horiz-adv-x="1787" d="M104 0v958h410v-106q42 56 117.5 93.5t159.5 37.5q183 0 266 -147q51 65 134.5 106t190.5 41q134 0 219 -93.5t85 -252.5v-637h-410v539q0 42 -24.5 68t-63.5 26t-63.5 -26t-24.5 -68v-539h-410v539q0 42 -24.5 68t-63.5 26t-63.5 -26t-24.5 -68v-539h-410z" />
<glyph unicode="n" horiz-adv-x="1202" d="M104 0v958h410v-106q46 58 120 94.5t163 36.5q133 0 218 -93t85 -253v-637h-410v539q0 42 -24.5 68t-63.5 26t-63.5 -26t-24.5 -68v-539h-410z" />
<glyph unicode="o" horiz-adv-x="1183" d="M53 479q0 209 155 356.5t384 147.5t383.5 -147.5t154.5 -356.5t-154.5 -356.5t-383.5 -147.5t-384 147.5t-155 356.5zM449 479q0 -60 41.5 -101.5t101.5 -41.5t101.5 41.5t41.5 101.5t-41.5 102t-101.5 42t-101.5 -42t-41.5 -102z" />
<glyph unicode="p" d="M104 -578v1536h410v-106q52 58 132.5 94.5t164.5 36.5q194 0 317 -144t123 -360t-123 -360t-317 -144q-84 0 -164.5 36.5t-132.5 94.5v-684h-410zM555 479q0 -60 41.5 -101.5t101.5 -41.5t102 41.5t42 101.5t-42 102t-102 42t-101.5 -42t-41.5 -102z" />
<glyph unicode="q" d="M61 479q0 216 123.5 360t317.5 144q84 0 164.5 -36.5t132.5 -94.5v106h409v-1536h-409v684q-52 -58 -132.5 -94.5t-164.5 -36.5q-194 0 -317.5 144t-123.5 360zM471 479q0 -60 41.5 -101.5t101.5 -41.5t102 41.5t42 101.5t-42 102t-102 42t-101.5 -42t-41.5 -102z" />
<glyph unicode="r" horiz-adv-x="929" d="M104 0v958h410v-127q33 63 103.5 107.5t154.5 44.5q94 0 158 -37l-117 -350q-53 37 -139 37q-76 0 -118 -46t-42 -122v-465h-410z" />
<glyph unicode="s" horiz-adv-x="882" d="M35 111l162 260q98 -95 170 -95q55 0 55 39q0 44 -70 78q-250 120 -250 299q0 130 98.5 210.5t264.5 80.5q189 0 340 -94l-141 -225q-45 45 -109 45q-53 0 -53 -29t108 -80q211 -98 211 -295q0 -146 -101 -238t-280 -92q-235 0 -405 136z" />
<glyph unicode="t" horiz-adv-x="847" d="M61 639v319h142v271h409v-271h191v-319h-191v-639h-409v639h-142z" />
<glyph unicode="u" horiz-adv-x="1204" d="M104 322v636h410v-538q0 -42 24.5 -68t63.5 -26t63.5 26t24.5 68v538h410v-958h-410v106q-46 -58 -119.5 -94.5t-162.5 -36.5q-133 0 -218.5 93.5t-85.5 253.5z" />
<glyph unicode="v" horiz-adv-x="1105" d="M18 938l414 45l121 -455l121 455l413 -45l-399 -938h-270z" />
<glyph unicode="w" horiz-adv-x="1699" d="M18 938l414 45l131 -434l152 409h270l152 -409l131 434l413 -45l-409 -938h-271l-151 401l-152 -401h-270z" />
<glyph unicode="x" horiz-adv-x="1128" d="M27 20l249 476l-227 442l426 45l88 -246l90 246l426 -45l-227 -442l250 -476l-426 -45l-113 279l-110 -279z" />
<glyph unicode="y" horiz-adv-x="1167" d="M27 936l415 47l152 -524l131 524l416 -47l-531 -1538l-415 45l208 586z" />
<glyph unicode="z" horiz-adv-x="980" d="M70 154l286 505h-235v299h708l62 -153l-309 -506h319v-299h-770z" />
<glyph unicode="{" horiz-adv-x="995" d="M143 553v164q95 29 135.5 97t40.5 171v123q0 194 113.5 311t300.5 117h201v-340h-33q-93 0 -132.5 -46.5t-39.5 -150.5v-43q0 -108 -52.5 -191.5t-148.5 -129.5q96 -46 148.5 -130t52.5 -192v-43q0 -104 39.5 -150t132.5 -46h33v-340h-201q-187 0 -300.5 117t-113.5 311 v123q0 103 -40.5 171t-135.5 97z" />
<glyph unicode="|" horiz-adv-x="737" d="M174 -410v1985h389v-1985h-389z" />
<glyph unicode="}" horiz-adv-x="995" d="M61 74h33q93 0 132.5 46t39.5 150v43q0 108 52.5 192t148.5 130q-96 46 -148.5 129.5t-52.5 191.5v43q0 104 -39.5 150.5t-132.5 46.5h-33v340h201q187 0 300.5 -117t113.5 -311v-123q0 -103 40.5 -171t135.5 -97v-164q-95 -29 -135.5 -97t-40.5 -171v-123 q0 -194 -113.5 -311t-300.5 -117h-201v340z" />
<glyph unicode="~" horiz-adv-x="1306" d="M82 463q7 242 98.5 363.5t233.5 121.5q71 0 127 -20t118 -68q60 -47 92 -67.5t52 -20.5q30 0 39 29.5t12 136.5l371 -43q-7 -242 -97.5 -363.5t-232.5 -121.5q-72 0 -128 20.5t-118 67.5q-61 48 -92 68t-51 20q-31 0 -40.5 -30t-12.5 -136z" />
<glyph unicode="&#xa1;" horiz-adv-x="819" d="M213 770q0 94 71.5 153.5t174.5 59.5t174.5 -59.5t71.5 -153.5t-71.5 -154.5t-174.5 -60.5t-174.5 60.5t-71.5 154.5zM221 467h475v-942h-475v942z" />
<glyph unicode="&#xa2;" horiz-adv-x="1073" d="M53 479q0 171 108 305t273 179v176h268v-170q98 -20 186 -74t152 -133l-299 -223q-50 84 -139 84q-60 0 -101.5 -42t-41.5 -102t41.5 -101.5t101.5 -41.5q89 0 139 84l299 -223q-129 -164 -338 -207v-170h-268v176q-165 45 -273 178.5t-108 304.5z" />
<glyph unicode="&#xa3;" horiz-adv-x="1275" d="M102 219q66 57 108 144t42 157v103h-135v139h135v221q0 207 128.5 341t348.5 134q131 0 235.5 -42t206.5 -128l-176 -291q-76 76 -155 76q-53 0 -82 -32.5t-29 -92.5v-186h256v-139h-256v-15q0 -138 -53 -223h530v-385h-1013z" />
<glyph unicode="&#xa4;" horiz-adv-x="1490" d="M123 328l186 186q-33 84 -33 166q0 80 33 164l-186 188l250 250l188 -190q82 36 184 36q101 0 183 -36l190 190l250 -250l-188 -188q34 -75 34 -164q0 -91 -34 -166l188 -186l-250 -250l-190 188q-87 -35 -183 -35q-97 0 -184 35l-188 -188zM629 680q0 -48 33 -82.5 t83 -34.5t83.5 34.5t33.5 82.5t-33.5 82.5t-83.5 34.5t-83 -34.5t-33 -82.5z" />
<glyph unicode="&#xa5;" horiz-adv-x="1511" d="M35 1405l506 53l215 -487l215 487l506 -53l-396 -711h222v-139h-299l-11 -20v-56h310v-139h-310v-340h-475v340h-303v139h303v56l-12 20h-291v139h213z" />
<glyph unicode="&#xa6;" horiz-adv-x="737" d="M174 -246v738h389v-738h-389zM174 713v737h389v-737h-389z" />
<glyph unicode="&#xa7;" horiz-adv-x="1095" d="M135 629q0 98 45 180.5t129 136.5q-104 97 -104 228q0 126 95.5 204t250.5 78q184 0 334 -115l-131 -206q-47 47 -99 47q-32 0 -51.5 -17t-19.5 -45q0 -33 29.5 -58.5t123.5 -78.5q230 -130 230 -358q0 -98 -45 -181.5t-129 -136.5q104 -97 104 -227q0 -126 -95.5 -204.5 t-250.5 -78.5q-184 0 -334 115l131 207q47 -47 98 -47q32 0 52 16.5t20 44.5q0 33 -29.5 58.5t-123.5 78.5q-230 130 -230 359zM457 627q0 -40 27.5 -68.5t66.5 -28.5t66.5 28.5t27.5 68.5t-27 68t-67 28t-67 -28t-27 -68z" />
<glyph unicode="&#xa8;" horiz-adv-x="880" d="M72 1329q0 65 45.5 110.5t109.5 45.5q65 0 110.5 -45.5t45.5 -110.5q0 -64 -45.5 -109.5t-110.5 -45.5t-110 45t-45 110zM498 1329q0 65 45.5 110.5t109.5 45.5q65 0 110.5 -45.5t45.5 -110.5q0 -64 -45.5 -109.5t-110.5 -45.5t-110 45t-45 110z" />
<glyph unicode="&#xa9;" horiz-adv-x="1658" d="M88 717q0 151 58.5 288.5t157.5 236.5t236.5 157.5t288.5 58.5q202 0 372.5 -99t270 -269.5t99.5 -372.5t-99.5 -372.5t-270 -270t-372.5 -99.5t-372.5 99.5t-269.5 270t-99 372.5zM203 717q0 -130 49.5 -247.5t133.5 -202.5t199.5 -135t243.5 -50t244 50t200 135 t133.5 202.5t49.5 247.5t-49.5 247.5t-133.5 202.5t-200 135t-244 50t-243.5 -50t-199.5 -135t-133.5 -202.5t-49.5 -247.5zM434 717q0 108 56 199.5t151 143.5t205 52q105 0 200.5 -45.5t161.5 -128.5l-233 -174q-41 65 -111 65q-46 0 -79 -32.5t-33 -79.5t33 -80t79 -33 q70 0 111 66l233 -174q-66 -83 -161.5 -128.5t-200.5 -45.5q-168 0 -290 116t-122 279z" />
<glyph unicode="&#xaa;" horiz-adv-x="970" d="M51 1083q0 159 90.5 267t231.5 108q64 0 122 -28.5t95 -73.5v78h299v-701h-299v78q-37 -45 -95 -73.5t-122 -28.5q-141 0 -231.5 107.5t-90.5 266.5zM350 1083q0 -44 31 -74t74 -30q44 0 74 30t30 74t-30 74.5t-74 30.5q-43 0 -74 -30.5t-31 -74.5z" />
<glyph unicode="&#xab;" horiz-adv-x="1323" d="M70 569v140l544 376l41 -282l-249 -164l249 -164l-41 -282zM668 569v140l544 376l41 -282l-249 -164l249 -164l-41 -282z" />
<glyph unicode="&#xac;" horiz-adv-x="1306" d="M102 590v340h1102v-617h-409v277h-693z" />
<glyph unicode="&#xad;" horiz-adv-x="831" d="M102 510v340h627v-340h-627z" />
<glyph unicode="&#xae;" horiz-adv-x="1658" d="M88 717q0 151 58.5 288.5t157.5 236.5t236.5 157.5t288.5 58.5q202 0 372.5 -99t270 -269.5t99.5 -372.5t-99.5 -372.5t-270 -270t-372.5 -99.5t-372.5 99.5t-269.5 270t-99 372.5zM203 717q0 -130 49.5 -247.5t133.5 -202.5t199.5 -135t243.5 -50t244 50t200 135 t133.5 202.5t49.5 247.5t-49.5 247.5t-133.5 202.5t-200 135t-244 50t-243.5 -50t-199.5 -135t-133.5 -202.5t-49.5 -247.5zM514 334v778h367q136 0 219.5 -76t83.5 -182q0 -144 -131 -219l213 -289l-299 -27l-154 244v-229h-299zM813 772h27q33 0 54 18t21 48t-21 48.5 t-54 18.5h-27v-133z" />
<glyph unicode="&#xaf;" horiz-adv-x="1024" d="M0 1208v242h1024v-242h-1024z" />
<glyph unicode="&#xb0;" horiz-adv-x="819" d="M115 1167q0 125 85.5 208t209.5 83t209.5 -83t85.5 -208t-85.5 -207.5t-209.5 -82.5t-209.5 82.5t-85.5 207.5zM330 1167q0 -35 23.5 -57.5t56.5 -22.5t56 22.5t23 57.5t-23 57.5t-56 22.5t-56.5 -22.5t-23.5 -57.5z" />
<glyph unicode="&#xb1;" horiz-adv-x="1306" d="M123 0v340h1061v-340h-1061zM123 723v340h326v315h409v-315h326v-340h-326v-315h-409v315h-326z" />
<glyph unicode="&#xb2;" horiz-adv-x="860" d="M78 639l315 393q51 61 51 111q0 21 -15 35t-36 14q-51 0 -78 -64l-231 95q107 235 342 235q143 0 234.5 -86t91.5 -211q0 -75 -21 -131.5t-69 -116.5l-123 -151h231v-266h-631z" />
<glyph unicode="&#xb3;" horiz-adv-x="860" d="M66 651l206 148q39 -70 99 -70q39 0 61.5 24t22.5 64q0 35 -23 60.5t-55 25.5q-31 0 -53 -10l-76 137l119 148h-238v256h551l74 -138l-174 -233q186 -86 186 -279q0 -131 -96.5 -222t-259.5 -91q-110 0 -201 46.5t-143 133.5z" />
<glyph unicode="&#xb4;" horiz-adv-x="880" d="M188 1292l347 262l157 -198l-352 -254z" />
<glyph unicode="&#xb5;" horiz-adv-x="1204" d="M104 -395v1353h410v-538q0 -42 24.5 -68t63.5 -26t63.5 26t24.5 68v538h410v-958h-410v106q-60 -85 -176 -116v-385h-410z" />
<glyph unicode="&#xb6;" horiz-adv-x="1374" d="M53 993q0 205 127 323t328 118h727v-1702h-299v1405h-86v-1405h-299v815h-19q-130 0 -237.5 51.5t-174.5 154.5t-67 240z" />
<glyph unicode="&#xb7;" horiz-adv-x="663" d="M86 674q0 101 72.5 173.5t173.5 72.5t173.5 -72.5t72.5 -173.5t-72.5 -172.5t-173.5 -71.5t-173.5 71.5t-72.5 172.5z" />
<glyph unicode="&#xb8;" horiz-adv-x="880" d="M170 -432l106 162q28 -19 64 -19q41 0 41 31q0 43 -84 43l-21 59l76 160h226l-50 -102q55 -20 87 -64.5t32 -109.5q0 -92 -71.5 -153.5t-180.5 -61.5q-140 0 -225 55z" />
<glyph unicode="&#xb9;" horiz-adv-x="860" d="M96 1233l408 225l149 -41v-921h-311v585l-119 -67z" />
<glyph unicode="&#xba;" horiz-adv-x="970" d="M90 1083q0 156 114.5 265.5t278.5 109.5q167 0 282.5 -109.5t115.5 -265.5t-115.5 -265t-282.5 -109q-164 0 -278.5 109.5t-114.5 264.5zM381 1083q0 -44 30.5 -74t73.5 -30q44 0 74.5 30t30.5 74t-30.5 74.5t-74.5 30.5q-43 0 -73.5 -30.5t-30.5 -74.5z" />
<glyph unicode="&#xbb;" horiz-adv-x="1323" d="M70 475l249 164l-249 164l41 282l544 -376v-140l-544 -376zM668 475l250 164l-250 164l41 282l544 -376v-140l-544 -376z" />
<glyph unicode="&#xbc;" horiz-adv-x="2074" d="M82 1233l407 225l150 -41v-921h-311v585l-119 -67zM561 63l752 1401l174 -94l-752 -1401zM1178 291l444 670l240 -15v-545h96v-243h-96v-146h-277v146h-354zM1466 399h119v179z" />
<glyph unicode="&#xbd;" horiz-adv-x="2080" d="M82 1233l407 225l150 -41v-921h-311v585l-119 -67zM561 63l752 1401l174 -94l-752 -1401zM1296 143l316 394q51 61 51 110q0 21 -15 35t-36 14q-51 0 -78 -63l-231 94q53 116 140 176t202 60q142 0 233.5 -86t91.5 -211q0 -75 -21 -131.5t-69 -116.5l-123 -152h232v-266 h-631z" />
<glyph unicode="&#xbe;" horiz-adv-x="2080" d="M57 651l207 148q39 -70 98 -70q39 0 61.5 24t22.5 64q0 35 -22.5 60.5t-54.5 25.5q-31 0 -54 -10l-75 137l118 148h-237v256h551l73 -138l-174 -233q187 -86 187 -279q0 -131 -97 -222t-260 -91q-110 0 -201 46.5t-143 133.5zM567 63l752 1401l174 -94l-752 -1401z M1184 279l444 669l240 -14v-545h96v-244h-96v-145h-277v145h-354zM1473 387h118v178z" />
<glyph unicode="&#xbf;" horiz-adv-x="1175" d="M88 -141q0 249 262 362q113 48 146.5 70.5t33.5 46.5q0 33 -65 33q-43 0 -82 -13l-21 103q92 39 220 39t203 -60t75 -153q0 -148 -180 -252q-58 -34 -85.5 -71.5t-27.5 -90.5q0 -41 25.5 -67.5t71.5 -26.5t83 37t52 104l331 -72q-49 -164 -184.5 -260t-343.5 -96 q-238 0 -376 106t-138 261zM338 762q0 94 71.5 153.5t174.5 59.5t174 -59.5t71 -153.5t-71 -154.5t-174 -60.5t-174.5 60.5t-71.5 154.5z" />
<glyph unicode="&#xc0;" horiz-adv-x="1490" d="M27 23l579 1411h279l579 -1411l-450 -48l-76 213h-387l-74 -213zM426 1774l158 198l346 -262l-152 -190zM637 471h217l-109 334z" />
<glyph unicode="&#xc1;" horiz-adv-x="1490" d="M27 23l579 1411h279l579 -1411l-450 -48l-76 213h-387l-74 -213zM561 1710l346 262l158 -198l-352 -254zM637 471h217l-109 334z" />
<glyph unicode="&#xc2;" horiz-adv-x="1490" d="M27 23l579 1411h279l579 -1411l-450 -48l-76 213h-387l-74 -213zM354 1710l346 262h91l346 -262l-152 -190l-240 176l-239 -176zM637 471h217l-109 334z" />
<glyph unicode="&#xc3;" horiz-adv-x="1490" d="M27 23l579 1411h279l579 -1411l-450 -48l-76 213h-387l-74 -213zM369 1626q18 146 80.5 219.5t160.5 73.5q81 0 166 -68q48 -39 78 -39q22 0 36.5 21.5t22.5 81.5l211 -47q-40 -293 -241 -293q-83 0 -166 67q-48 39 -78 39q-23 0 -37 -21t-22 -81zM637 471h217l-109 334z " />
<glyph unicode="&#xc4;" horiz-adv-x="1490" d="M27 23l579 1411h279l579 -1411l-450 -48l-76 213h-387l-74 -213zM377 1747q0 65 45.5 110.5t109.5 45.5t110 -45.5t46 -110.5t-46 -110.5t-110 -45.5t-109.5 45.5t-45.5 110.5zM637 471h217l-109 334zM803 1747q0 65 45.5 110.5t109.5 45.5t110 -45.5t46 -110.5 t-46 -110.5t-110 -45.5t-109.5 45.5t-45.5 110.5z" />
<glyph unicode="&#xc5;" horiz-adv-x="1490" d="M27 23l579 1411h279l579 -1411l-450 -48l-76 213h-387l-74 -213zM508 1747q0 98 70 163.5t167 65.5t167.5 -65.5t70.5 -163.5t-70.5 -163.5t-167.5 -65.5t-167 65.5t-70 163.5zM637 471h217l-109 334zM682 1747q0 -28 18 -47t45 -19q28 0 46 19t18 47t-18 46.5t-46 18.5 t-45.5 -18.5t-17.5 -46.5z" />
<glyph unicode="&#xc6;" horiz-adv-x="1886" d="M10 25l774 1409h998v-344h-406v-187h365v-344h-365v-215h422v-344h-876v188h-326l-115 -213zM748 471h174v338z" />
<glyph unicode="&#xc7;" horiz-adv-x="1538" d="M70 717q0 130 40.5 247t113 206t168 154.5t209 99.5t233.5 34q202 0 370.5 -80.5t280.5 -216.5l-361 -248q-46 69 -118.5 104.5t-159.5 35.5q-129 0 -225.5 -95t-96.5 -241t96.5 -241t225.5 -95q87 0 159.5 35t118.5 104l361 -248q-94 -113 -227.5 -188t-292.5 -98 l-39 -84q55 -19 86.5 -64t31.5 -110q0 -92 -71 -153.5t-180 -61.5q-141 0 -226 55l107 162q28 -19 63 -19q41 0 41 31q0 43 -84 43l-20 59l63 138q-135 16 -256 76t-212.5 153.5t-145 224.5t-53.5 281z" />
<glyph unicode="&#xc8;" horiz-adv-x="1107" d="M123 0v1434h881v-344h-406v-187h365v-344h-365v-215h422v-344h-897zM303 1774l158 198l346 -262l-152 -190z" />
<glyph unicode="&#xc9;" horiz-adv-x="1107" d="M123 0v1434h881v-344h-406v-187h365v-344h-365v-215h422v-344h-897zM332 1710l346 262l158 -198l-353 -254z" />
<glyph unicode="&#xca;" horiz-adv-x="1107" d="M123 0v1434h881v-344h-406v-187h365v-344h-365v-215h422v-344h-897zM170 1710l346 262h90l346 -262l-151 -190l-240 176l-239 -176z" />
<glyph unicode="&#xcb;" horiz-adv-x="1107" d="M123 0v1434h881v-344h-406v-187h365v-344h-365v-215h422v-344h-897zM193 1747q0 65 45.5 110.5t109.5 45.5t110 -45.5t46 -110.5t-46 -110.5t-110 -45.5t-109.5 45.5t-45.5 110.5zM618 1747q0 65 46 110.5t110 45.5t110 -45.5t46 -110.5t-46 -110.5t-110 -45.5t-110 45.5 t-46 110.5z" />
<glyph unicode="&#xcc;" horiz-adv-x="753" d="M96 1774l158 198l346 -262l-151 -190zM139 0v1434h475v-1434h-475z" />
<glyph unicode="&#xcd;" horiz-adv-x="753" d="M139 0v1434h475v-1434h-475zM154 1710l346 262l157 -198l-352 -254z" />
<glyph unicode="&#xce;" horiz-adv-x="753" d="M-14 1710l346 262h90l346 -262l-152 -190l-239 176l-240 -176zM139 0v1434h475v-1434h-475z" />
<glyph unicode="&#xcf;" horiz-adv-x="753" d="M8 1747q0 65 46 110.5t110 45.5t109.5 -45.5t45.5 -110.5t-45.5 -110.5t-109.5 -45.5t-110 45.5t-46 110.5zM139 0v1434h475v-1434h-475zM434 1747q0 65 46 110.5t110 45.5t109.5 -45.5t45.5 -110.5t-45.5 -110.5t-109.5 -45.5t-110 45.5t-46 110.5z" />
<glyph unicode="&#xd0;" horiz-adv-x="1480" d="M53 604v221h123v609h471q161 0 301.5 -51.5t242.5 -143.5t161 -227t59 -295t-59 -295t-161 -227t-242.5 -143.5t-301.5 -51.5h-471v604h-123zM641 406h21q135 0 209.5 80t74.5 231t-74.5 231t-209.5 80h-21v-203h156v-221h-156v-198z" />
<glyph unicode="&#xd1;" horiz-adv-x="1511" d="M123 0v1411l254 47l547 -639v615h465v-1411l-254 -48l-547 639v-614h-465zM379 1626q18 145 81 219t161 74q80 0 165 -68q48 -39 78 -39q23 0 37.5 21.5t22.5 81.5l211 -47q-40 -293 -242 -293q-83 0 -166 67q-48 39 -78 39q-23 0 -37 -21t-22 -81z" />
<glyph unicode="&#xd2;" horiz-adv-x="1699" d="M70 717q0 160 63.5 299.5t170 235.5t248.5 151t298 55t298 -55t248.5 -151t170 -235.5t63.5 -299.5t-63.5 -299.5t-170 -235.5t-248.5 -151.5t-298 -55.5t-298 55.5t-248.5 151.5t-170 235.5t-63.5 299.5zM524 717q0 -144 95 -240t235 -96t235 96t95 240t-95 240t-235 96 t-235 -96t-95 -240zM535 1774l157 198l346 -262l-151 -190z" />
<glyph unicode="&#xd3;" horiz-adv-x="1699" d="M70 717q0 160 63.5 299.5t170 235.5t248.5 151t298 55t298 -55t248.5 -151t170 -235.5t63.5 -299.5t-63.5 -299.5t-170 -235.5t-248.5 -151.5t-298 -55.5t-298 55.5t-248.5 151.5t-170 235.5t-63.5 299.5zM524 717q0 -144 95 -240t235 -96t235 96t95 240t-95 240t-235 96 t-235 -96t-95 -240zM662 1710l346 262l157 -198l-352 -254z" />
<glyph unicode="&#xd4;" horiz-adv-x="1699" d="M70 717q0 160 63.5 299.5t170 235.5t248.5 151t298 55t298 -55t248.5 -151t170 -235.5t63.5 -299.5t-63.5 -299.5t-170 -235.5t-248.5 -151.5t-298 -55.5t-298 55.5t-248.5 151.5t-170 235.5t-63.5 299.5zM459 1710l346 262h90l346 -262l-151 -190l-240 176l-240 -176z M524 717q0 -144 95 -240t235 -96t235 96t95 240t-95 240t-235 96t-235 -96t-95 -240z" />
<glyph unicode="&#xd5;" horiz-adv-x="1699" d="M70 717q0 160 63.5 299.5t170 235.5t248.5 151t298 55t298 -55t248.5 -151t170 -235.5t63.5 -299.5t-63.5 -299.5t-170 -235.5t-248.5 -151.5t-298 -55.5t-298 55.5t-248.5 151.5t-170 235.5t-63.5 299.5zM473 1626q18 145 81 219t161 74q81 0 166 -68q48 -39 77 -39 q23 0 37.5 21.5t22.5 81.5l211 -47q-40 -293 -242 -293q-83 0 -166 67q-48 39 -78 39q-23 0 -37 -21t-22 -81zM524 717q0 -144 95 -240t235 -96t235 96t95 240t-95 240t-235 96t-235 -96t-95 -240z" />
<glyph unicode="&#xd6;" horiz-adv-x="1699" d="M70 717q0 160 63.5 299.5t170 235.5t248.5 151t298 55t298 -55t248.5 -151t170 -235.5t63.5 -299.5t-63.5 -299.5t-170 -235.5t-248.5 -151.5t-298 -55.5t-298 55.5t-248.5 151.5t-170 235.5t-63.5 299.5zM481 1747q0 65 45.5 110.5t110.5 45.5t110.5 -45.5t45.5 -110.5 t-45.5 -110.5t-110.5 -45.5t-110.5 45.5t-45.5 110.5zM524 717q0 -144 95 -240t235 -96t235 96t95 240t-95 240t-235 96t-235 -96t-95 -240zM907 1747q0 65 45.5 110.5t110.5 45.5t110.5 -45.5t45.5 -110.5t-45.5 -110.5t-110.5 -45.5t-110.5 45.5t-45.5 110.5z" />
<glyph unicode="&#xd7;" horiz-adv-x="1306" d="M106 424l259 258l-259 258l289 289l258 -258l258 258l289 -289l-258 -258l258 -258l-289 -289l-258 258l-258 -258z" />
<glyph unicode="&#xd8;" horiz-adv-x="1699" d="M70 717q0 160 63.5 299.5t170 235.5t248.5 151t298 55q161 0 311 -61l137 241l113 -61l-135 -238q163 -98 258.5 -260t95.5 -362q0 -160 -63.5 -299.5t-170 -235.5t-248.5 -151.5t-298 -55.5q-157 0 -313 60l-136 -240l-112 62l133 235q-162 98 -257 261.5t-95 363.5z M524 717q0 -156 109 -254l323 573q-56 17 -102 17q-140 0 -235 -96t-95 -240zM743 399q53 -18 111 -18q140 0 235 96t95 240q0 158 -115 258z" />
<glyph unicode="&#xd9;" horiz-adv-x="1437" d="M123 559v875h475v-912q0 -67 31.5 -104t89.5 -37t89.5 37t31.5 104v912h475v-875q0 -134 -49.5 -246t-132.5 -185t-190 -113t-224 -40t-224 40t-190 113t-132.5 185t-49.5 246zM420 1774l158 198l346 -262l-152 -190z" />
<glyph unicode="&#xda;" horiz-adv-x="1437" d="M123 559v875h475v-912q0 -67 31.5 -104t89.5 -37t89.5 37t31.5 104v912h475v-875q0 -134 -49.5 -246t-132.5 -185t-190 -113t-224 -40t-224 40t-190 113t-132.5 185t-49.5 246zM514 1710l346 262l158 -198l-352 -254z" />
<glyph unicode="&#xdb;" horiz-adv-x="1437" d="M123 559v875h475v-912q0 -67 31.5 -104t89.5 -37t89.5 37t31.5 104v912h475v-875q0 -134 -49.5 -246t-132.5 -185t-190 -113t-224 -40t-224 40t-190 113t-132.5 185t-49.5 246zM328 1710l346 262h90l346 -262l-152 -190l-239 176l-240 -176z" />
<glyph unicode="&#xdc;" horiz-adv-x="1437" d="M123 559v875h475v-912q0 -67 31.5 -104t89.5 -37t89.5 37t31.5 104v912h475v-875q0 -134 -49.5 -246t-132.5 -185t-190 -113t-224 -40t-224 40t-190 113t-132.5 185t-49.5 246zM350 1747q0 65 46 110.5t110 45.5t110 -45.5t46 -110.5t-46 -110.5t-110 -45.5t-110 45.5 t-46 110.5zM776 1747q0 65 46 110.5t110 45.5t109.5 -45.5t45.5 -110.5t-45.5 -110.5t-109.5 -45.5t-110 45.5t-46 110.5z" />
<glyph unicode="&#xdd;" horiz-adv-x="1511" d="M35 1405l485 53l236 -508l235 508l486 -53l-484 -870v-535h-475v535zM586 1710l346 262l158 -198l-353 -254z" />
<glyph unicode="&#xde;" horiz-adv-x="1316" d="M123 0v1434h455v-187h112q160 0 291 -61t211 -182.5t80 -282.5t-80 -282.5t-211 -182.5t-291 -61h-112v-195h-455zM578 580h49q89 0 139.5 34.5t50.5 106.5t-50.5 106.5t-139.5 34.5h-49v-282z" />
<glyph unicode="&#xdf;" horiz-adv-x="1282" d="M123 0v1016q0 242 138 381t372 139q105 0 195 -34t150 -91.5t94 -133t34 -157.5q0 -192 -141 -303q133 -57 202.5 -162.5t69.5 -253.5q0 -192 -127.5 -309t-327.5 -117q-127 0 -221 43l64 379q48 -28 112 -28q51 0 79 24.5t28 67.5q0 72 -60 122.5t-168 67.5l21 297 q47 11 74.5 42t27.5 81q0 45 -31 74t-77 29q-48 0 -80.5 -35t-32.5 -92v-1047h-395z" />
<glyph unicode="&#xe0;" d="M61 479q0 216 123.5 360t317.5 144q84 0 164.5 -36.5t132.5 -94.5v106h409v-958h-409v106q-52 -58 -132.5 -94.5t-164.5 -36.5q-194 0 -317.5 144t-123.5 360zM408 1315l157 198l346 -262l-151 -190zM471 479q0 -60 41.5 -101.5t101.5 -41.5t102 41.5t42 101.5t-42 102 t-102 42t-101.5 -42t-41.5 -102z" />
<glyph unicode="&#xe1;" d="M61 479q0 216 123.5 360t317.5 144q84 0 164.5 -36.5t132.5 -94.5v106h409v-958h-409v106q-52 -58 -132.5 -94.5t-164.5 -36.5q-194 0 -317.5 144t-123.5 360zM432 1251l346 262l158 -198l-352 -254zM471 479q0 -60 41.5 -101.5t101.5 -41.5t102 41.5t42 101.5t-42 102 t-102 42t-101.5 -42t-41.5 -102z" />
<glyph unicode="&#xe2;" d="M61 479q0 216 123.5 360t317.5 144q84 0 164.5 -36.5t132.5 -94.5v106h409v-958h-409v106q-52 -58 -132.5 -94.5t-164.5 -36.5q-194 0 -317.5 144t-123.5 360zM291 1251l346 262h90l346 -262l-151 -190l-240 176l-240 -176zM471 479q0 -60 41.5 -101.5t101.5 -41.5 t102 41.5t42 101.5t-42 102t-102 42t-101.5 -42t-41.5 -102z" />
<glyph unicode="&#xe3;" d="M61 479q0 216 123.5 360t317.5 144q84 0 164.5 -36.5t132.5 -94.5v106h409v-958h-409v106q-52 -58 -132.5 -94.5t-164.5 -36.5q-194 0 -317.5 144t-123.5 360zM305 1167q18 145 81 219t161 74q83 0 166 -67q48 -39 78 -39q23 0 37 21t22 81l211 -47q-40 -293 -242 -293 q-81 0 -166 68q-48 39 -78 39q-22 0 -36.5 -21.5t-22.5 -81.5zM471 479q0 -60 41.5 -101.5t101.5 -41.5t102 41.5t42 101.5t-42 102t-102 42t-101.5 -42t-41.5 -102z" />
<glyph unicode="&#xe4;" d="M61 479q0 216 123.5 360t317.5 144q84 0 164.5 -36.5t132.5 -94.5v106h409v-958h-409v106q-52 -58 -132.5 -94.5t-164.5 -36.5q-194 0 -317.5 144t-123.5 360zM313 1288q0 64 45.5 110t110.5 46t110.5 -46t45.5 -110t-45.5 -109.5t-110.5 -45.5t-110.5 45.5t-45.5 109.5z M471 479q0 -60 41.5 -101.5t101.5 -41.5t102 41.5t42 101.5t-42 102t-102 42t-101.5 -42t-41.5 -102zM739 1288q0 64 45.5 110t110.5 46t110.5 -46t45.5 -110t-45.5 -109.5t-110.5 -45.5t-110.5 45.5t-45.5 109.5z" />
<glyph unicode="&#xe5;" d="M61 479q0 216 123.5 360t317.5 144q84 0 164.5 -36.5t132.5 -94.5v106h409v-958h-409v106q-52 -58 -132.5 -94.5t-164.5 -36.5q-194 0 -317.5 144t-123.5 360zM444 1288q0 98 70.5 164t167.5 66t167.5 -66t70.5 -164t-70.5 -163.5t-167.5 -65.5t-167.5 65.5t-70.5 163.5z M471 479q0 -60 41.5 -101.5t101.5 -41.5t102 41.5t42 101.5t-42 102t-102 42t-101.5 -42t-41.5 -102zM618 1288q0 -28 18 -46.5t46 -18.5t45.5 18.5t17.5 46.5t-18 47t-45 19q-28 0 -46 -19t-18 -47z" />
<glyph unicode="&#xe6;" horiz-adv-x="1773" d="M70 297q0 144 93 232.5t232 88.5q154 0 244 -90v27q0 170 -193 170q-56 0 -119.5 -19t-107.5 -49l-100 222q181 104 424 104q228 0 331 -129q129 129 330 129q136 0 253.5 -66.5t187 -182.5t69.5 -255q0 -53 -2 -82h-663q6 -66 52 -100.5t107 -34.5q109 0 162 98 l297 -157q-176 -228 -457 -228q-112 0 -199 38t-139 102q-60 -66 -156 -103t-208 -37q-211 0 -324.5 88t-113.5 234zM467 297q0 -37 26.5 -63.5t63.5 -26.5t63.5 26.5t26.5 63.5t-26.5 63.5t-63.5 26.5t-63.5 -26.5t-26.5 -63.5zM1051 623h286q-12 48 -50 75t-93 27t-93 -27 t-50 -75z" />
<glyph unicode="&#xe7;" horiz-adv-x="1073" d="M53 479q0 138 71.5 254t192 183t261.5 67q134 0 256 -58t206 -163l-299 -223q-50 84 -139 84q-60 0 -101.5 -42t-41.5 -102t41.5 -101.5t101.5 -41.5q89 0 139 84l299 -223q-132 -162 -331 -207l-41 -88q55 -19 86.5 -64t31.5 -110q0 -92 -71 -153.5t-180 -61.5 q-141 0 -226 55l107 162q28 -19 63 -19q41 0 41 31q0 43 -84 43l-20 59l65 140q-183 33 -305.5 171.5t-122.5 323.5z" />
<glyph unicode="&#xe8;" horiz-adv-x="1189" d="M53 479q0 138 72 254t198 183t277 67q141 0 263 -66.5t194.5 -183t72.5 -254.5q0 -53 -2 -82h-663q6 -66 52.5 -100.5t107.5 -34.5q108 0 161 98l297 -157q-176 -228 -483 -228q-151 0 -277 67t-198 183t-72 254zM313 1315l158 198l346 -262l-151 -190zM467 623h287 q-14 48 -51.5 75t-92.5 27t-92 -27t-51 -75z" />
<glyph unicode="&#xe9;" horiz-adv-x="1189" d="M53 479q0 138 72 254t198 183t277 67q141 0 263 -66.5t194.5 -183t72.5 -254.5q0 -53 -2 -82h-663q6 -66 52.5 -100.5t107.5 -34.5q108 0 161 98l297 -157q-176 -228 -483 -228q-151 0 -277 67t-198 183t-72 254zM350 1251l346 262l158 -198l-352 -254zM467 623h287 q-14 48 -51.5 75t-92.5 27t-92 -27t-51 -75z" />
<glyph unicode="&#xea;" horiz-adv-x="1189" d="M53 479q0 138 72 254t198 183t277 67q141 0 263 -66.5t194.5 -183t72.5 -254.5q0 -53 -2 -82h-663q6 -66 52.5 -100.5t107.5 -34.5q108 0 161 98l297 -157q-176 -228 -483 -228q-151 0 -277 67t-198 183t-72 254zM188 1251l347 262h90l346 -262l-152 -190l-239 176 l-240 -176zM467 623h287q-14 48 -51.5 75t-92.5 27t-92 -27t-51 -75z" />
<glyph unicode="&#xeb;" horiz-adv-x="1189" d="M53 479q0 138 72 254t198 183t277 67q141 0 263 -66.5t194.5 -183t72.5 -254.5q0 -53 -2 -82h-663q6 -66 52.5 -100.5t107.5 -34.5q108 0 161 98l297 -157q-176 -228 -483 -228q-151 0 -277 67t-198 183t-72 254zM211 1288q0 64 45.5 110t110.5 46q64 0 109.5 -45.5 t45.5 -110.5q0 -64 -45 -109.5t-110 -45.5t-110.5 45.5t-45.5 109.5zM467 623h287q-14 48 -51.5 75t-92.5 27t-92 -27t-51 -75zM637 1288q0 64 45.5 110t110.5 46q64 0 109.5 -45.5t45.5 -110.5q0 -64 -45 -109.5t-110 -45.5t-110.5 45.5t-45.5 109.5z" />
<glyph unicode="&#xec;" horiz-adv-x="638" d="M39 1315l158 198l346 -262l-152 -190zM115 0v958h409v-958h-409z" />
<glyph unicode="&#xed;" horiz-adv-x="638" d="M96 1251l346 262l158 -198l-352 -254zM115 0v958h409v-958h-409z" />
<glyph unicode="&#xee;" horiz-adv-x="638" d="M-72 1251l346 262h91l346 -262l-152 -190l-240 176l-239 -176zM115 0v958h409v-958h-409z" />
<glyph unicode="&#xef;" horiz-adv-x="638" d="M-49 1288q0 65 45.5 110.5t109.5 45.5t110 -46t46 -110t-45.5 -109.5t-110.5 -45.5q-64 0 -109.5 45.5t-45.5 109.5zM115 0v958h409v-958h-409zM377 1288q0 65 45.5 110.5t109.5 45.5t110 -46t46 -110t-45.5 -109.5t-110.5 -45.5q-64 0 -109.5 45.5t-45.5 109.5z" />
<glyph unicode="&#xf0;" horiz-adv-x="1210" d="M72 479q0 209 130 343.5t357 146.5q-42 64 -108 127l-181 -101l-71 121l131 74q-90 61 -219 121l450 184q99 -54 152 -92l147 82l72 -121l-105 -57q153 -145 237.5 -340t84.5 -426q0 -251 -152.5 -408.5t-386.5 -157.5q-229 0 -383.5 147.5t-154.5 356.5zM467 479 q0 -60 41.5 -101.5t101.5 -41.5t102 41.5t42 101.5t-42 102t-102 42t-101.5 -42t-41.5 -102z" />
<glyph unicode="&#xf1;" horiz-adv-x="1202" d="M104 0v958h410v-106q46 58 120 94.5t163 36.5q133 0 218 -93t85 -253v-637h-410v539q0 42 -24.5 68t-63.5 26t-63.5 -26t-24.5 -68v-539h-410zM225 1167q18 145 81 219t161 74q83 0 166 -67q48 -39 78 -39q23 0 37 21t22 81l211 -47q-40 -293 -242 -293q-81 0 -166 68 q-48 39 -77 39q-23 0 -37.5 -21.5t-22.5 -81.5z" />
<glyph unicode="&#xf2;" horiz-adv-x="1183" d="M53 479q0 209 155 356.5t384 147.5t383.5 -147.5t154.5 -356.5t-154.5 -356.5t-383.5 -147.5t-384 147.5t-155 356.5zM319 1315l158 198l346 -262l-151 -190zM449 479q0 -60 41.5 -101.5t101.5 -41.5t101.5 41.5t41.5 101.5t-41.5 102t-101.5 42t-101.5 -42t-41.5 -102z " />
<glyph unicode="&#xf3;" horiz-adv-x="1183" d="M53 479q0 209 155 356.5t384 147.5t383.5 -147.5t154.5 -356.5t-154.5 -356.5t-383.5 -147.5t-384 147.5t-155 356.5zM360 1251l347 262l157 -198l-352 -254zM449 479q0 -60 41.5 -101.5t101.5 -41.5t101.5 41.5t41.5 101.5t-41.5 102t-101.5 42t-101.5 -42t-41.5 -102z " />
<glyph unicode="&#xf4;" horiz-adv-x="1183" d="M53 479q0 209 155 356.5t384 147.5t383.5 -147.5t154.5 -356.5t-154.5 -356.5t-383.5 -147.5t-384 147.5t-155 356.5zM201 1251l346 262h90l346 -262l-152 -190l-239 176l-240 -176zM449 479q0 -60 41.5 -101.5t101.5 -41.5t101.5 41.5t41.5 101.5t-41.5 102t-101.5 42 t-101.5 -42t-41.5 -102z" />
<glyph unicode="&#xf5;" horiz-adv-x="1183" d="M53 479q0 209 155 356.5t384 147.5t383.5 -147.5t154.5 -356.5t-154.5 -356.5t-383.5 -147.5t-384 147.5t-155 356.5zM215 1167q18 145 81 219t161 74q83 0 166 -67q48 -39 77 -39q23 0 37.5 21t22.5 81l211 -47q-40 -293 -242 -293q-81 0 -166 68q-48 39 -78 39 q-22 0 -36.5 -21.5t-22.5 -81.5zM449 479q0 -60 41.5 -101.5t101.5 -41.5t101.5 41.5t41.5 101.5t-41.5 102t-101.5 42t-101.5 -42t-41.5 -102z" />
<glyph unicode="&#xf6;" horiz-adv-x="1183" d="M53 479q0 209 155 356.5t384 147.5t383.5 -147.5t154.5 -356.5t-154.5 -356.5t-383.5 -147.5t-384 147.5t-155 356.5zM223 1288q0 64 45.5 110t110.5 46t110.5 -46t45.5 -110t-45.5 -109.5t-110.5 -45.5t-110.5 45.5t-45.5 109.5zM449 479q0 -60 41.5 -101.5t101.5 -41.5 t101.5 41.5t41.5 101.5t-41.5 102t-101.5 42t-101.5 -42t-41.5 -102zM649 1288q0 64 45.5 110t110.5 46t110.5 -46t45.5 -110t-45.5 -109.5t-110.5 -45.5t-110.5 45.5t-45.5 109.5z" />
<glyph unicode="&#xf7;" horiz-adv-x="1306" d="M123 510v340h1061v-340h-1061zM449 233q0 86 58 145.5t146 59.5t146.5 -59.5t58.5 -145.5t-58.5 -145t-146.5 -59t-146 59t-58 145zM449 1126q0 86 58 145.5t146 59.5t146.5 -59.5t58.5 -145.5t-58.5 -145t-146.5 -59t-146 59t-58 145z" />
<glyph unicode="&#xf8;" horiz-adv-x="1183" d="M53 479q0 209 155 356.5t384 147.5q106 0 196 -35l138 242l102 -60l-131 -233q108 -68 170.5 -179t62.5 -239q0 -209 -154.5 -356.5t-383.5 -147.5q-98 0 -199 33l-135 -239l-102 59l131 231q-109 70 -171.5 180.5t-62.5 239.5zM432 479q0 -56 35 -100l145 258 q-6 2 -20 2q-66 0 -113 -47t-47 -113zM569 319h23q66 0 113 47t47 113q0 52 -35 99z" />
<glyph unicode="&#xf9;" horiz-adv-x="1204" d="M104 322v636h410v-538q0 -42 24.5 -68t63.5 -26t63.5 26t24.5 68v538h410v-958h-410v106q-46 -58 -119.5 -94.5t-162.5 -36.5q-133 0 -218.5 93.5t-85.5 253.5zM326 1315l157 198l346 -262l-151 -190z" />
<glyph unicode="&#xfa;" horiz-adv-x="1204" d="M104 322v636h410v-538q0 -42 24.5 -68t63.5 -26t63.5 26t24.5 68v538h410v-958h-410v106q-46 -58 -119.5 -94.5t-162.5 -36.5q-133 0 -218.5 93.5t-85.5 253.5zM375 1251l346 262l158 -198l-353 -254z" />
<glyph unicode="&#xfb;" horiz-adv-x="1204" d="M104 322v636h410v-538q0 -42 24.5 -68t63.5 -26t63.5 26t24.5 68v538h410v-958h-410v106q-46 -58 -119.5 -94.5t-162.5 -36.5q-133 0 -218.5 93.5t-85.5 253.5zM211 1251l346 262h90l346 -262l-151 -190l-240 176l-240 -176z" />
<glyph unicode="&#xfc;" horiz-adv-x="1204" d="M104 322v636h410v-538q0 -42 24.5 -68t63.5 -26t63.5 26t24.5 68v538h410v-958h-410v106q-46 -58 -119.5 -94.5t-162.5 -36.5q-133 0 -218.5 93.5t-85.5 253.5zM233 1288q0 64 45.5 110t110.5 46t110.5 -46t45.5 -110t-45.5 -109.5t-110.5 -45.5t-110.5 45.5t-45.5 109.5 zM659 1288q0 64 45.5 110t110.5 46t110.5 -46t45.5 -110t-45.5 -109.5t-110.5 -45.5t-110.5 45.5t-45.5 109.5z" />
<glyph unicode="&#xfd;" horiz-adv-x="1167" d="M27 936l415 47l152 -524l131 524l416 -47l-531 -1538l-415 45l208 586zM362 1251l347 262l157 -198l-352 -254z" />
<glyph unicode="&#xfe;" horiz-adv-x="1320" d="M104 -578v2114h410v-684q52 58 132.5 94.5t164.5 36.5q194 0 317 -144t123 -360t-123 -360t-317 -144q-84 0 -164.5 36.5t-132.5 94.5v-684h-410zM555 479q0 -60 41.5 -101.5t101.5 -41.5t102 41.5t42 101.5t-42 102t-102 42t-101.5 -42t-41.5 -102z" />
<glyph unicode="&#xff;" horiz-adv-x="1167" d="M27 936l415 47l152 -524l131 524l416 -47l-531 -1538l-415 45l208 586zM229 1288q0 64 45.5 110t110.5 46t110.5 -46t45.5 -110t-45.5 -109.5t-110.5 -45.5t-110.5 45.5t-45.5 109.5zM655 1288q0 64 45.5 110t110.5 46t110.5 -46t45.5 -110t-45.5 -109.5t-110.5 -45.5 t-110.5 45.5t-45.5 109.5z" />
<glyph unicode="&#x152;" horiz-adv-x="1835" d="M70 717q0 152 63.5 287t169.5 228.5t249 147.5t298 54h881v-344h-406v-187h365v-344h-365v-215h422v-344h-897q-155 0 -298 54t-249 147.5t-169.5 228.5t-63.5 287zM530 717q0 -134 90.5 -217.5t229.5 -83.5v602q-139 0 -229.5 -83.5t-90.5 -217.5z" />
<glyph unicode="&#x153;" horiz-adv-x="1845" d="M53 479q0 139 71 255t192 182.5t264 66.5q106 0 199 -35.5t155 -99.5q132 135 350 135q136 0 253.5 -66.5t187 -182.5t69.5 -255q0 -53 -2 -82h-664q6 -66 52.5 -100.5t107.5 -34.5q109 0 162 98l297 -157q-176 -228 -457 -228q-111 0 -204 36t-152 100 q-62 -64 -155 -100t-199 -36q-142 0 -263.5 68t-192.5 184t-71 252zM449 479q0 -60 41.5 -101.5t101.5 -41.5t101.5 41.5t41.5 101.5t-41.5 102t-101.5 42t-101.5 -42t-41.5 -102zM1130 623h287q-12 48 -50 75t-93 27t-93.5 -27.5t-50.5 -74.5z" />
<glyph unicode="&#x178;" horiz-adv-x="1511" d="M35 1405l485 53l236 -508l235 508l486 -53l-484 -870v-535h-475v535zM387 1747q0 65 45.5 110.5t110.5 45.5q64 0 109.5 -45.5t45.5 -110.5t-45.5 -110.5t-109.5 -45.5q-65 0 -110.5 45.5t-45.5 110.5zM813 1747q0 65 45.5 110.5t110.5 45.5q64 0 109.5 -45.5 t45.5 -110.5t-45.5 -110.5t-109.5 -45.5q-65 0 -110.5 45.5t-45.5 110.5z" />
<glyph unicode="&#x2c6;" horiz-adv-x="880" d="M49 1292l346 262h90l346 -262l-151 -190l-240 176l-239 -176z" />
<glyph unicode="&#x2dc;" horiz-adv-x="880" d="M61 1210q18 145 81 219t161 74q83 0 166 -67q48 -39 78 -39q23 0 37 21t22 81l211 -47q-40 -293 -242 -293q-80 0 -165 68q-48 39 -78 39q-23 0 -37.5 -21.5t-22.5 -81.5z" />
<glyph unicode="&#x2000;" horiz-adv-x="988" />
<glyph unicode="&#x2001;" horiz-adv-x="1976" />
<glyph unicode="&#x2002;" horiz-adv-x="988" />
<glyph unicode="&#x2003;" horiz-adv-x="1976" />
<glyph unicode="&#x2004;" horiz-adv-x="658" />
<glyph unicode="&#x2005;" horiz-adv-x="494" />
<glyph unicode="&#x2006;" horiz-adv-x="329" />
<glyph unicode="&#x2007;" horiz-adv-x="329" />
<glyph unicode="&#x2008;" horiz-adv-x="247" />
<glyph unicode="&#x2009;" horiz-adv-x="395" />
<glyph unicode="&#x200a;" horiz-adv-x="109" />
<glyph unicode="&#x2010;" horiz-adv-x="831" d="M102 510v340h627v-340h-627z" />
<glyph unicode="&#x2011;" horiz-adv-x="831" d="M102 510v340h627v-340h-627z" />
<glyph unicode="&#x2012;" horiz-adv-x="831" d="M102 510v340h627v-340h-627z" />
<glyph unicode="&#x2013;" horiz-adv-x="1024" d="M0 510v340h1024v-340h-1024z" />
<glyph unicode="&#x2014;" horiz-adv-x="2048" d="M0 510v340h2048v-340h-2048z" />
<glyph unicode="&#x2018;" horiz-adv-x="663" d="M86 899l260 717l336 -35l-164 -727z" />
<glyph unicode="&#x2019;" horiz-adv-x="663" d="M14 940l164 727l432 -45l-260 -717z" />
<glyph unicode="&#x201a;" horiz-adv-x="663" d="M14 -287l164 727l432 -45l-260 -717z" />
<glyph unicode="&#x201c;" horiz-adv-x="1259" d="M86 899l260 717l336 -35l-164 -727zM682 899l260 717l336 -35l-164 -727z" />
<glyph unicode="&#x201d;" horiz-adv-x="1259" d="M14 940l164 727l432 -45l-260 -717zM610 940l164 727l432 -45l-260 -717z" />
<glyph unicode="&#x201e;" horiz-adv-x="1259" d="M14 -287l164 727l432 -45l-260 -717zM610 -287l164 727l432 -45l-260 -717z" />
<glyph unicode="&#x2022;" horiz-adv-x="1003" d="M158 680q0 141 101.5 242.5t242.5 101.5t242.5 -101.5t101.5 -242.5t-101.5 -242.5t-242.5 -101.5t-242.5 101.5t-101.5 242.5z" />
<glyph unicode="&#x2026;" horiz-adv-x="1990" d="M86 219q0 101 72.5 173.5t173.5 72.5t173.5 -72.5t72.5 -173.5t-72.5 -172.5t-173.5 -71.5t-173.5 71.5t-72.5 172.5zM750 219q0 101 72 173.5t173 72.5t173.5 -72.5t72.5 -173.5t-72.5 -172.5t-173.5 -71.5t-173 71.5t-72 172.5zM1413 219q0 101 72.5 173.5t173.5 72.5 t173.5 -72.5t72.5 -173.5t-72.5 -172.5t-173.5 -71.5t-173.5 71.5t-72.5 172.5z" />
<glyph unicode="&#x202f;" horiz-adv-x="395" />
<glyph unicode="&#x2039;" horiz-adv-x="724" d="M70 569v140l544 376l41 -282l-249 -164l249 -164l-41 -282z" />
<glyph unicode="&#x203a;" horiz-adv-x="724" d="M70 475l249 164l-249 164l41 282l544 -376v-140l-544 -376z" />
<glyph unicode="&#x205f;" horiz-adv-x="494" />
<glyph unicode="&#x20ac;" horiz-adv-x="1472" d="M18 537v139h109v82h-109v139h125q54 257 241 409t445 152q355 0 590 -297l-315 -233q-109 125 -254 125q-77 0 -140 -41t-96 -115h375v-139h-405q-2 -14 -2 -41q0 -29 2 -41h405v-139h-375q33 -75 95.5 -115.5t140.5 -40.5q145 0 254 125l315 -234q-235 -297 -590 -297 q-258 0 -445 152.5t-241 409.5h-125z" />
<glyph unicode="&#x2122;" horiz-adv-x="1482" d="M61 1223v202h502v-202h-139v-480h-225v480h-138zM520 756l221 669h144l86 -305l86 305h143l221 -669l-233 -25l-70 311l-82 -299h-131l-82 299l-69 -311z" />
<glyph unicode="&#x25fc;" horiz-adv-x="983" d="M0 0v983h983v-983h-983z" />
</font>
</defs>
</svg>
